#Comment line ignore any data following # character 
#Hierarchical Translation and Rotation (.htr) file 
[Header]	
#Header keywords are followed by a single value 
FileType HTR		#Single word string
DataType HTRS		#Translation followed by rotation and scale data
FileVersion 1		#integer
NumSegments 84		#integer
NumFrames 2		#integer
DataFrameRate 30		#integer, data frame rate in this file
EulerRotationOrder ZYX
CalibrationUnits mm
RotationUnits Degrees
GlobalAxisofGravity Y
BoneLengthAxis Y
ScaleFactor 1.00
[SegmentNames&Hierarchy]
#CHILD	PARENT
MASTER GLOBAL
root MASTER
chest root
L_mid_tent01 root
R_mid_tent01 root
spine01 root
Bip01_Neck chest
L_humerus chest
R_humerus chest
weapon_bone chest
Bip01_Head Bip01_Neck
eye_left_bone Bip01_Head
eye_right_bone Bip01_Head
L_forearm L_humerus
L_front_hand L_forearm
L_weapon_bone L_forearm
L_front_hand01_01 L_front_hand
L_front_hand02_01 L_front_hand
L_front_hand03_01 L_front_hand
L_front_hand01_02 L_front_hand01_01
L_front_hand02_02 L_front_hand02_01
L_front_hand03_02 L_front_hand03_01
R_forearm R_humerus
R_front_hand R_forearm
R_weapon_bone R_forearm
R_front_hand01_01 R_front_hand
R_front_hand02_01 R_front_hand
R_front_hand03_01 R_front_hand
R_front_hand01_02 R_front_hand01_01
R_front_hand02_02 R_front_hand02_01
R_front_hand03_02 R_front_hand03_01
null_rope01_connect L_mid_tent01
Rope1_Seg01 null_rope01_connect
Rope1_Seg02 Rope1_Seg01
Rope1_Seg03 Rope1_Seg02
Rope1_Seg04 Rope1_Seg03
Rope1_Seg05 Rope1_Seg04
Rope1_Seg06 Rope1_Seg05
Rope1_Seg07 Rope1_Seg06
Rope1_Seg09 Rope1_Seg07
L_mid_hand01 Rope1_Seg09
L_mid_hand02 Rope1_Seg09
L_mid_hand03 Rope1_Seg09
null_rope02_connect R_mid_tent01
Rope2_Seg01 null_rope02_connect
Rope2_Seg02 Rope2_Seg01
Rope2_Seg03 Rope2_Seg02
Rope2_Seg04 Rope2_Seg03
Rope2_Seg05 Rope2_Seg04
Rope2_Seg06 Rope2_Seg05
Rope2_Seg07 Rope2_Seg06
Rope2_Seg09 Rope2_Seg07
R_mid_hand01 Rope2_Seg09
R_mid_hand02 Rope2_Seg09
R_mid_hand03 Rope2_Seg09
spine02 spine01
spine03 spine02
pelvis spine03
null_rope03_connect pelvis
null_rope04_connect pelvis
Rope3_Seg01 null_rope03_connect
Rope3_Seg02 Rope3_Seg01
Rope3_Seg03 Rope3_Seg02
Rope3_Seg04 Rope3_Seg03
Rope3_Seg05 Rope3_Seg04
Rope3_Seg06 Rope3_Seg05
Rope3_Seg07 Rope3_Seg06
Rope3_Seg08 Rope3_Seg07
Rope3_Seg09 Rope3_Seg08
R_rear_hand01 Rope3_Seg09
R_rear_hand02 Rope3_Seg09
R_rear_hand03 Rope3_Seg09
Rope4_Seg01 null_rope04_connect
Rope4_Seg02 Rope4_Seg01
Rope4_Seg03 Rope4_Seg02
Rope4_Seg04 Rope4_Seg03
Rope4_Seg05 Rope4_Seg04
Rope4_Seg06 Rope4_Seg05
Rope4_Seg07 Rope4_Seg06
Rope4_Seg08 Rope4_Seg07
Rope4_Seg09 Rope4_Seg08
L_rear_hand01 Rope4_Seg09
L_rear_hand02 Rope4_Seg09
L_rear_hand03 Rope4_Seg09
[BasePosition]
#SegmentName Tx, Ty, Tz, Rx, Ry, Rz, BoneLength
MASTER 0.000000 0.000000 0.000000 -90.000000 0.000000 0.000000 10.000000 
root 0.000000 0.000000 0.000000 0.000000 0.000000 0.000000 10.000000 
chest 0.000000 0.000000 0.000000 0.000000 0.000000 0.000000 10.000000 
L_mid_tent01 0.000000 0.000000 0.000000 0.000000 0.000000 0.000000 10.000000 
R_mid_tent01 0.000000 0.000000 0.000000 0.000000 0.000000 0.000000 10.000000 
spine01 0.000000 0.000000 0.000000 0.000000 0.000000 0.000000 10.000000 
Bip01_Neck 0.000000 0.000000 0.000000 0.000000 0.000000 0.000000 10.000000 
L_humerus 0.000000 0.000000 0.000000 0.000000 0.000000 0.000000 10.000000 
R_humerus 0.000000 0.000000 0.000000 0.000000 0.000000 0.000000 10.000000 
weapon_bone 0.000000 0.000000 0.000000 0.000000 0.000000 0.000000 10.000000 
Bip01_Head 0.000000 0.000000 0.000000 0.000000 0.000000 0.000000 10.000000 
eye_left_bone 0.000000 0.000000 0.000000 0.000000 0.000000 0.000000 10.000000 
eye_right_bone 0.000000 0.000000 0.000000 0.000000 0.000000 0.000000 10.000000 
L_forearm 0.000000 0.000000 0.000000 0.000000 0.000000 0.000000 10.000000 
L_front_hand 0.000000 0.000000 0.000000 0.000000 0.000000 0.000000 10.000000 
L_weapon_bone 0.000000 0.000000 0.000000 0.000000 0.000000 0.000000 10.000000 
L_front_hand01_01 0.000000 0.000000 0.000000 0.000000 0.000000 0.000000 10.000000 
L_front_hand02_01 0.000000 0.000000 0.000000 0.000000 0.000000 0.000000 10.000000 
L_front_hand03_01 0.000000 0.000000 0.000000 0.000000 0.000000 0.000000 10.000000 
L_front_hand01_02 0.000000 0.000000 0.000000 0.000000 0.000000 0.000000 10.000000 
L_front_hand02_02 0.000000 0.000000 0.000000 0.000000 0.000000 0.000000 10.000000 
L_front_hand03_02 0.000000 0.000000 0.000000 0.000000 0.000000 0.000000 10.000000 
R_forearm 0.000000 0.000000 0.000000 0.000000 0.000000 0.000000 10.000000 
R_front_hand 0.000000 0.000000 0.000000 0.000000 0.000000 0.000000 10.000000 
R_weapon_bone 0.000000 0.000000 0.000000 0.000000 0.000000 0.000000 10.000000 
R_front_hand01_01 0.000000 0.000000 0.000000 0.000000 0.000000 0.000000 10.000000 
R_front_hand02_01 0.000000 0.000000 0.000000 0.000000 0.000000 0.000000 10.000000 
R_front_hand03_01 0.000000 0.000000 0.000000 0.000000 0.000000 0.000000 10.000000 
R_front_hand01_02 0.000000 0.000000 0.000000 0.000000 0.000000 0.000000 10.000000 
R_front_hand02_02 0.000000 0.000000 0.000000 0.000000 0.000000 0.000000 10.000000 
R_front_hand03_02 0.000000 0.000000 0.000000 0.000000 0.000000 0.000000 10.000000 
null_rope01_connect 0.000000 0.000000 0.000000 0.000000 0.000000 0.000000 10.000000 
Rope1_Seg01 0.000000 0.000000 0.000000 0.000000 0.000000 0.000000 10.000000 
Rope1_Seg02 0.000000 0.000000 0.000000 0.000000 0.000000 0.000000 10.000000 
Rope1_Seg03 0.000000 0.000000 0.000000 0.000000 0.000000 0.000000 10.000000 
Rope1_Seg04 0.000000 0.000000 0.000000 0.000000 0.000000 0.000000 10.000000 
Rope1_Seg05 0.000000 0.000000 0.000000 0.000000 0.000000 0.000000 10.000000 
Rope1_Seg06 0.000000 0.000000 0.000000 0.000000 0.000000 0.000000 10.000000 
Rope1_Seg07 0.000000 0.000000 0.000000 0.000000 0.000000 0.000000 10.000000 
Rope1_Seg09 0.000000 0.000000 0.000000 0.000000 0.000000 0.000000 10.000000 
L_mid_hand01 0.000000 0.000000 0.000000 0.000000 0.000000 0.000000 10.000000 
L_mid_hand02 0.000000 0.000000 0.000000 0.000000 0.000000 0.000000 10.000000 
L_mid_hand03 0.000000 0.000000 0.000000 0.000000 0.000000 0.000000 10.000000 
null_rope02_connect 0.000000 0.000000 0.000000 0.000000 0.000000 0.000000 10.000000 
Rope2_Seg01 0.000000 0.000000 0.000000 0.000000 0.000000 0.000000 10.000000 
Rope2_Seg02 0.000000 0.000000 0.000000 0.000000 0.000000 0.000000 10.000000 
Rope2_Seg03 0.000000 0.000000 0.000000 0.000000 0.000000 0.000000 10.000000 
Rope2_Seg04 0.000000 0.000000 0.000000 0.000000 0.000000 0.000000 10.000000 
Rope2_Seg05 0.000000 0.000000 0.000000 0.000000 0.000000 0.000000 10.000000 
Rope2_Seg06 0.000000 0.000000 0.000000 0.000000 0.000000 0.000000 10.000000 
Rope2_Seg07 0.000000 0.000000 0.000000 0.000000 0.000000 0.000000 10.000000 
Rope2_Seg09 0.000000 0.000000 0.000000 0.000000 0.000000 0.000000 10.000000 
R_mid_hand01 0.000000 0.000000 0.000000 0.000000 0.000000 0.000000 10.000000 
R_mid_hand02 0.000000 0.000000 0.000000 0.000000 0.000000 0.000000 10.000000 
R_mid_hand03 0.000000 0.000000 0.000000 0.000000 0.000000 0.000000 10.000000 
spine02 0.000000 0.000000 0.000000 0.000000 0.000000 0.000000 10.000000 
spine03 0.000000 0.000000 0.000000 0.000000 0.000000 0.000000 10.000000 
pelvis 0.000000 0.000000 0.000000 0.000000 0.000000 0.000000 10.000000 
null_rope03_connect 0.000000 0.000000 0.000000 0.000000 0.000000 0.000000 10.000000 
null_rope04_connect 0.000000 0.000000 0.000000 0.000000 0.000000 0.000000 10.000000 
Rope3_Seg01 0.000000 0.000000 0.000000 0.000000 0.000000 0.000000 10.000000 
Rope3_Seg02 0.000000 0.000000 0.000000 0.000000 0.000000 0.000000 10.000000 
Rope3_Seg03 0.000000 0.000000 0.000000 0.000000 0.000000 0.000000 10.000000 
Rope3_Seg04 0.000000 0.000000 0.000000 0.000000 0.000000 0.000000 10.000000 
Rope3_Seg05 0.000000 0.000000 0.000000 0.000000 0.000000 0.000000 10.000000 
Rope3_Seg06 0.000000 0.000000 0.000000 0.000000 0.000000 0.000000 10.000000 
Rope3_Seg07 0.000000 0.000000 0.000000 0.000000 0.000000 0.000000 10.000000 
Rope3_Seg08 0.000000 0.000000 0.000000 0.000000 0.000000 0.000000 10.000000 
Rope3_Seg09 0.000000 0.000000 0.000000 0.000000 0.000000 0.000000 10.000000 
R_rear_hand01 0.000000 0.000000 0.000000 0.000000 0.000000 0.000000 10.000000 
R_rear_hand02 0.000000 0.000000 0.000000 0.000000 0.000000 0.000000 10.000000 
R_rear_hand03 0.000000 0.000000 0.000000 0.000000 0.000000 0.000000 10.000000 
Rope4_Seg01 0.000000 0.000000 0.000000 0.000000 0.000000 0.000000 10.000000 
Rope4_Seg02 0.000000 0.000000 0.000000 0.000000 0.000000 0.000000 10.000000 
Rope4_Seg03 0.000000 0.000000 0.000000 0.000000 0.000000 0.000000 10.000000 
Rope4_Seg04 0.000000 0.000000 0.000000 0.000000 0.000000 0.000000 10.000000 
Rope4_Seg05 0.000000 0.000000 0.000000 0.000000 0.000000 0.000000 10.000000 
Rope4_Seg06 0.000000 0.000000 0.000000 0.000000 0.000000 0.000000 10.000000 
Rope4_Seg07 0.000000 0.000000 0.000000 0.000000 0.000000 0.000000 10.000000 
Rope4_Seg08 0.000000 0.000000 0.000000 0.000000 0.000000 0.000000 10.000000 
Rope4_Seg09 0.000000 0.000000 0.000000 0.000000 0.000000 0.000000 10.000000 
L_rear_hand01 0.000000 0.000000 0.000000 0.000000 0.000000 0.000000 10.000000 
L_rear_hand02 0.000000 0.000000 0.000000 0.000000 0.000000 0.000000 10.000000 
L_rear_hand03 0.000000 0.000000 0.000000 0.000000 0.000000 0.000000 10.000000 
#Beginning of Data. Separated by tabs
#Fr	Tx	Ty	Tz	Rx	Ry	Rz	SF
[MASTER]
29 -0.000580 3734.319336 5366.650879 0.001660 0.001660 0.001660 6538.049316
30 -0.000599 3824.696289 5249.924805 0.001660 0.001660 0.001660 6495.383789
[root]
29 43.988361 -51.398876 304.502319 -106.948784 -22.474295 -90.764091 311.927032
30 38.536251 -73.950516 336.819000 -106.623512 -22.137110 -90.740784 346.988129
[chest]
29 -84.512650 -34.090519 0.000000 9.206547 4.872778 -168.716873 91.129311
30 -84.512650 -34.090519 0.000000 9.052727 4.950394 -172.056137 91.129311
[L_mid_tent01]
29 27.299128 22.179338 -249.918701 -1.311454 27.633070 67.573135 252.381714
30 27.299129 22.179348 -249.918701 -1.206830 28.533392 67.620567 252.381714
[R_mid_tent01]
29 23.228794 24.509907 226.238495 172.965866 -23.503595 57.670826 228.744751
30 23.228794 24.509907 226.238495 172.206375 -23.756348 59.416630 228.744751
[spine01]
29 -0.361383 -0.195265 0.000000 0.001956 0.001298 22.853567 0.410763
30 -0.361383 -0.195265 0.000000 0.001955 0.001299 22.823286 0.410763
[Bip01_Neck]
29 165.484543 71.581718 0.000119 176.643677 -1.657967 43.431911 180.302734
30 165.484543 71.581718 0.000119 176.643677 -1.657967 43.431911 180.302734
[L_humerus]
29 -13.983130 -135.272980 -120.471481 118.591141 81.071617 -150.715683 181.680161
30 -13.983130 -135.272980 -120.471481 128.634354 79.970848 -140.525009 181.680161
[R_humerus]
29 -13.983309 -135.273102 125.287651 -173.571945 -62.326256 -91.238266 184.909012
30 -13.983309 -135.273102 125.287651 -174.773972 -55.158047 -89.834518 184.909012
[weapon_bone]
29 235.964890 -300.705902 0.000000 0.000000 -89.951546 -128.212341 382.234833
30 235.964890 -300.705902 0.000000 0.000000 -89.951546 -128.212341 382.234833
[Bip01_Head]
29 213.477463 185.622925 12.973613 4.440357 -0.902635 -43.900562 283.190430
30 213.431381 185.751938 11.306135 4.439760 -0.689331 -43.902359 283.168793
[eye_left_bone]
29 -24.626970 125.451866 -64.772606 0.000000 -90.000000 -99.840431 143.318359
30 -24.626970 125.451866 -64.772606 0.000000 -90.000000 -99.840431 143.318359
[eye_right_bone]
29 -24.626970 125.451866 64.327362 0.000000 -89.965736 80.156380 143.117676
30 -24.626970 125.451866 64.327362 0.000000 -89.965736 80.156380 143.117676
[L_forearm]
29 322.776093 0.000000 -0.000119 0.000190 -0.002340 -99.292664 322.776093
30 322.776093 0.000000 -0.000119 0.000197 -0.002339 -99.646065 322.776093
[L_front_hand]
29 241.149185 -0.042021 -3.300071 -175.245132 -1.837092 -27.423031 241.171753
30 241.149185 -0.042021 -3.300071 -175.240326 -1.835919 -27.423111 241.171753
[L_weapon_bone]
29 156.183838 0.000000 0.000000 0.000014 0.000007 0.000001 156.183838
30 156.183838 0.000000 0.000000 0.000014 0.000007 0.000001 156.183838
[L_front_hand01_01]
29 86.095154 20.947098 -0.655860 -0.314221 -0.508315 69.457222 88.609184
30 86.095154 20.947098 -0.655860 -0.173495 -0.576507 54.642807 88.609184
[L_front_hand02_01]
29 86.935165 -11.437475 24.513514 146.024506 -56.930256 -51.545868 91.046425
30 86.935165 -11.437475 24.513514 131.628983 -47.073074 -33.402580 91.046425
[L_front_hand03_01]
29 86.637497 -14.123976 -20.424902 -146.109680 55.146996 -53.367828 90.126129
30 86.637497 -14.123976 -20.424902 -132.490906 45.389427 -35.777111 90.126129
[L_front_hand01_02]
29 71.020905 -0.000179 0.000030 0.001284 0.001965 -23.693792 71.020905
30 71.020905 -0.000179 0.000030 -0.000000 -0.000000 -57.379704 71.020905
[L_front_hand02_02]
29 71.020927 -0.000119 0.000060 0.001284 0.001965 -23.693792 71.020927
30 71.020927 -0.000119 0.000060 -0.000000 -0.000000 -57.379704 71.020927
[L_front_hand03_02]
29 71.020905 -0.000060 0.000060 0.001284 0.001965 -23.693792 71.020905
30 71.020905 -0.000060 0.000060 -0.000000 -0.000000 -57.379704 71.020905
[R_forearm]
29 322.776428 -0.000060 0.000030 0.211026 0.023833 -97.862648 322.776428
30 322.776428 -0.000060 0.000030 0.209707 0.025551 -98.209877 322.776428
[R_front_hand]
29 238.847015 -0.006795 2.210259 16.942110 -10.645350 -26.314234 238.857239
30 238.847015 -0.006795 2.210259 16.998306 -10.643088 -26.315874 238.857239
[R_weapon_bone]
29 155.664093 0.002503 -0.000030 0.003487 0.001180 -90.988930 155.664078
30 155.664093 0.002503 -0.000030 0.003487 0.001180 -90.988930 155.664078
[R_front_hand01_01]
29 87.624611 14.231146 22.918642 -128.741852 -43.689255 29.450216 91.683487
30 87.624611 14.231146 22.918642 -122.124245 -31.678274 18.703571 91.683487
[R_front_hand02_01]
29 89.356956 14.367283 -19.491137 129.909653 42.282280 32.277042 92.579636
30 89.356956 14.367283 -19.491137 123.409760 30.459372 21.398478 92.579636
[R_front_hand03_01]
29 87.286232 -22.307278 -0.143439 -0.036369 -0.452672 -50.456730 90.091743
30 87.286232 -22.307278 -0.143439 -0.150515 -0.429315 -35.768787 90.091743
[R_front_hand01_02]
29 71.020905 0.000060 0.000119 0.001777 0.001534 8.377220 71.020905
30 71.020905 0.000060 0.000119 0.001777 0.001534 8.377221 71.020905
[R_front_hand02_02]
29 71.020844 -0.000030 -0.000119 0.001777 0.001534 8.377220 71.020836
30 71.020844 -0.000030 -0.000119 0.001777 0.001534 8.377221 71.020836
[R_front_hand03_02]
29 71.020905 0.000000 0.000030 0.001777 0.001534 8.377220 71.020905
30 71.020905 0.000000 0.000030 0.001777 0.001534 8.377221 71.020905
[null_rope01_connect]
29 328.732483 0.000000 -0.000238 -143.925995 -45.586830 -170.288269 328.732483
30 328.732483 0.000000 -0.000238 -143.875458 -45.044552 -170.663452 328.732483
[Rope1_Seg01]
29 -0.000028 0.000019 0.000075 75.522095 -43.051903 -148.754761 0.000082
30 -0.000028 0.000018 0.000072 88.055138 -36.507431 -162.279236 0.000079
[Rope1_Seg02]
29 139.999863 -0.000179 0.000000 4.317657 -6.815959 -9.179014 139.999863
30 139.999863 -0.000179 0.000000 6.138397 -10.913400 -11.597543 139.999863
[Rope1_Seg03]
29 139.999924 0.000060 -0.000060 13.841608 -17.560928 -21.977604 139.999924
30 139.999924 0.000060 -0.000060 14.826724 -23.324543 -23.396334 139.999924
[Rope1_Seg04]
29 139.999924 -0.000060 -0.000119 22.166046 -29.573872 -30.194796 139.999924
30 139.999924 -0.000060 -0.000119 10.916962 -25.537184 -18.389992 139.999924
[Rope1_Seg05]
29 139.999832 0.000119 -0.000060 5.608955 -21.855417 -8.232377 139.999832
30 139.999832 0.000119 -0.000060 2.052843 -22.241310 -4.965268 139.999832
[Rope1_Seg06]
29 139.999954 0.000119 -0.000060 0.079361 -28.923283 -4.381621 139.999954
30 139.999954 0.000119 -0.000060 -2.263209 -21.682098 -3.035529 139.999954
[Rope1_Seg07]
29 139.999985 0.000060 0.000000 -3.793947 -18.185369 -3.907241 139.999985
30 139.999985 0.000060 0.000000 -3.071668 -11.656090 -2.877898 139.999985
[Rope1_Seg09]
29 121.602913 0.000119 -0.000089 -89.793175 -1.359789 0.847147 121.602913
30 121.602913 0.000119 -0.000089 -89.793175 -1.359789 0.847147 121.602913
[L_mid_hand01]
29 103.859421 1.038730 8.195221 130.544373 -67.584518 -38.866947 104.187431
30 103.859421 1.038730 8.195221 130.544373 -67.584534 -38.866943 104.187431
[L_mid_hand02]
29 105.572853 -4.139662 -10.864139 -168.923172 43.409309 -73.498886 106.211075
30 105.572853 -4.139662 -10.864139 -168.923172 43.409328 -73.498909 106.211075
[L_mid_hand03]
29 104.641464 17.579376 -3.913581 -6.012626 17.808172 74.893661 106.179977
30 104.641464 17.579376 -3.913581 -6.012625 17.808174 74.893669 106.179977
[null_rope02_connect]
29 328.732849 0.000179 -0.000119 -65.100716 72.323433 61.439190 328.732849
30 328.732849 0.000179 -0.000119 -67.677193 72.030411 60.750538 328.732849
[Rope2_Seg01]
29 0.000058 0.000075 0.000000 -45.544701 -17.609493 39.833721 0.000094
30 0.000058 0.000072 0.000000 -42.808170 -28.049267 33.815998 0.000093
[Rope2_Seg02]
29 139.999741 -0.000060 -0.000119 0.514682 -0.045446 15.943463 139.999756
30 139.999741 -0.000060 -0.000119 0.003396 -1.148799 13.176930 139.999756
[Rope2_Seg03]
29 140.000107 0.000030 0.000000 4.780296 -1.058328 27.655506 140.000107
30 140.000107 0.000030 0.000000 3.565083 -3.249824 26.152115 140.000107
[Rope2_Seg04]
29 139.999802 0.000000 -0.000060 11.911129 -0.113605 30.698566 139.999802
30 139.999802 0.000000 -0.000060 15.415662 -6.257154 38.306812 139.999802
[Rope2_Seg05]
29 139.999985 -0.000060 0.000119 -1.198691 6.688426 -5.346600 139.999985
30 139.999985 -0.000060 0.000119 3.691182 12.466075 1.748968 139.999985
[Rope2_Seg06]
29 139.999893 -0.000030 -0.000119 -3.815894 7.633525 -18.099564 139.999893
30 139.999893 -0.000030 -0.000119 -4.181982 16.963995 -16.656078 139.999893
[Rope2_Seg07]
29 139.999893 0.000060 -0.000060 -0.334010 5.027266 -6.397439 139.999893
30 139.999893 0.000060 -0.000060 -0.413409 9.519347 -4.564977 139.999893
[Rope2_Seg09]
29 121.338966 0.000089 -0.000060 33.793236 -1.359788 -0.847141 121.338966
30 121.338966 0.000089 -0.000060 33.793236 -1.359788 -0.847141 121.338966
[R_mid_hand01]
29 104.680779 11.144459 -10.335981 -21.077940 43.559662 63.514484 105.778534
30 104.680779 11.144459 -10.335981 -18.585411 44.487877 67.094765 105.778534
[R_mid_hand02]
29 104.070427 2.443552 8.231699 56.113014 -63.580826 31.562031 104.424065
30 104.070427 2.443552 8.231699 52.755058 -65.811378 35.278732 104.424065
[R_mid_hand03]
29 106.028137 -11.221827 -5.996406 -175.658295 15.220738 -71.161598 106.788818
30 106.028137 -11.221827 -5.996406 -176.406250 15.411086 -73.996979 106.788818
[spine02]
29 129.756927 0.001550 0.000119 -0.674740 -4.003001 1.722748 129.756927
30 129.756927 0.001550 0.000119 -0.640270 -4.008471 1.231585 129.756927
[spine03]
29 78.613976 0.081476 -4.898987 1.265913 4.084441 7.351725 78.766510
30 78.613976 0.081465 -4.898987 1.288621 4.076868 7.671580 78.766510
[pelvis]
29 169.435242 0.051022 0.000000 -0.000952 -0.191402 -4.359076 169.435257
30 169.435242 0.051022 0.000000 -0.001981 -0.191392 -3.742886 169.435257
[null_rope03_connect]
29 -1.257226 -2.466202 137.391083 -155.084290 -72.797874 -120.049866 137.418976
30 -1.257226 -2.466202 137.391083 -155.425430 -73.170937 -120.447342 137.418976
[null_rope04_connect]
29 -1.259640 -2.480268 -137.844437 -155.084290 -72.797874 -120.049866 137.872513
30 -1.259640 -2.480268 -137.844437 -155.425430 -73.170937 -120.447342 137.872513
[Rope3_Seg01]
29 0.000000 0.000000 0.000000 -151.146362 -27.769211 -35.515633 0.000000
30 0.000000 0.000000 0.000000 -152.473404 -28.964466 -35.233250 0.000000
[Rope3_Seg02]
29 139.999924 -0.000119 0.000060 11.398592 -10.743506 5.084390 139.999924
30 139.999924 -0.000119 0.000060 9.710093 -8.931428 4.714945 139.999924
[Rope3_Seg03]
29 139.999924 -0.000119 0.000119 16.224094 -16.204815 20.978422 139.999924
30 139.999924 -0.000119 0.000119 18.270781 -18.862543 17.368896 139.999924
[Rope3_Seg04]
29 139.999924 0.000119 0.000000 8.484475 -20.992430 33.191231 139.999924
30 139.999924 0.000119 0.000000 6.473313 -12.296497 47.303196 139.999924
[Rope3_Seg05]
29 139.999924 -0.000238 0.000060 9.212155 -39.179443 11.779783 139.999924
30 139.999924 -0.000238 0.000060 -1.696788 -29.527838 13.613499 139.999924
[Rope3_Seg06]
29 139.999893 -0.000119 -0.000060 4.310399 -8.913377 5.585443 139.999893
30 139.999893 -0.000119 -0.000060 4.555798 -23.802250 1.206056 139.999893
[Rope3_Seg07]
29 139.999771 0.000060 -0.000119 2.269202 -3.493933 3.070470 139.999771
30 139.999771 0.000060 -0.000119 2.839700 -7.219507 3.030097 139.999771
[Rope3_Seg08]
29 139.999985 -0.000060 0.000000 1.454672 -1.771001 1.690790 139.999985
30 139.999985 -0.000060 0.000000 1.820385 -3.513337 1.692773 139.999985
[Rope3_Seg09]
29 90.185997 -0.000179 -0.000060 89.793228 -1.359877 -0.847183 90.185997
30 90.185997 -0.000179 -0.000060 89.793228 -1.359877 -0.847183 90.185997
[R_rear_hand01]
29 103.366196 -6.073594 -10.757982 -175.487610 24.273659 -68.532722 104.101845
30 103.366196 -6.073594 -10.757982 -176.652328 24.449375 -71.361557 104.101845
[R_rear_hand02]
29 100.509819 12.039542 -7.992327 -16.360666 35.627872 66.274094 101.543350
30 100.509819 12.039542 -7.992327 -14.552642 36.319771 69.354713 101.543350
[R_rear_hand03]
29 101.539970 5.215704 5.435467 75.232666 -67.112564 17.511591 101.819031
30 101.539970 5.215704 5.435467 73.490227 -69.598824 19.389961 101.819031
[Rope4_Seg01]
29 0.000010 0.000019 -0.000075 65.578461 -46.439857 -118.867577 0.000078
30 0.000010 0.000018 -0.000072 68.799919 -47.827225 -122.361717 0.000075
[Rope4_Seg02]
29 139.999985 0.000060 0.000119 5.169223 -15.928144 2.602683 139.999985
30 139.999985 0.000060 0.000119 4.187509 -13.768801 0.781932 139.999985
[Rope4_Seg03]
29 139.999924 0.000000 -0.000238 25.552298 -31.020670 9.738013 139.999924
30 139.999924 0.000000 -0.000238 25.929535 -31.366100 5.451044 139.999924
[Rope4_Seg04]
29 139.999985 0.000000 0.000119 40.819126 -20.503906 22.711067 139.999985
30 139.999985 0.000000 0.000119 56.418018 -27.202814 23.987785 139.999985
[Rope4_Seg05]
29 139.999802 -0.000060 -0.000119 23.234480 -3.969690 22.829527 139.999802
30 139.999802 -0.000060 -0.000119 26.329365 -1.166562 28.458256 139.999802
[Rope4_Seg06]
29 139.999924 0.000000 0.000060 12.639803 3.142979 20.413092 139.999924
30 139.999924 0.000000 0.000060 9.845035 6.831103 19.619139 139.999924
[Rope4_Seg07]
29 139.999802 0.000000 0.000000 3.635225 4.107765 9.222372 139.999802
30 139.999802 0.000000 0.000000 2.180658 4.649143 7.476672 139.999802
[Rope4_Seg08]
29 139.999924 0.000000 0.000119 -0.192714 2.420136 4.624090 139.999924
30 139.999924 0.000000 0.000119 -0.768847 2.491093 3.715583 139.999924
[Rope4_Seg09]
29 90.185791 0.000060 0.000060 -135.617828 2.228885 0.850567 90.185791
30 90.185791 0.000060 0.000060 -135.617828 2.228885 0.850567 90.185791
[L_rear_hand01]
29 101.696655 -8.392275 -7.654577 -13.120158 -36.794422 108.245644 102.329041
30 101.696655 -8.392275 -7.654577 -12.874827 -36.868488 107.832764 102.329041
[L_rear_hand02]
29 102.726799 -1.568258 5.773216 71.814781 71.499916 158.834518 102.900848
30 102.726799 -1.568258 5.773216 71.484589 71.816643 158.486160 102.900848
[L_rear_hand03]
29 104.552910 9.721220 -10.420293 -177.558807 -24.551933 -106.459061 105.519653
30 104.552910 9.721220 -10.420293 -177.714203 -24.565960 -106.089043 105.519653
